<svg width="16" height="16" viewBox="0 0 16 16" fill="none" xmlns="http://www.w3.org/2000/svg">
<path fill-rule="evenodd" clip-rule="evenodd" d="M7.23016 13.7671C7.51513 13.8107 7.80698 13.8333 8.10417 13.8333C11.2683 13.8333 13.8333 11.2683 13.8333 8.10418C13.8333 4.94003 11.2683 2.375 8.10417 2.375C7.89189 2.375 7.68227 2.38655 7.47599 2.40905C9.04557 3.59817 10.0833 5.65807 10.0833 8C10.0833 10.4621 8.93632 12.6125 7.23016 13.7671ZM7.99999 15.5C12.1421 15.5 15.5 12.1421 15.5 8C15.5 3.85786 12.1421 0.5 7.99999 0.5C3.85785 0.5 0.5 3.85786 0.5 8C0.5 12.1421 3.85785 15.5 7.99999 15.5Z" fill="white"/>
</svg>
