<svg width="14" height="16" viewBox="0 0 14 16" fill="none" xmlns="http://www.w3.org/2000/svg">
<path fill-rule="evenodd" clip-rule="evenodd" d="M2.08692 1.74704C2.26845 1.03031 2.91776 0.5 3.69091 0.5C4.27084 0.5 4.7811 0.79838 5.07653 1.25H5.56031C5.86087 0.941551 6.28078 0.75 6.74546 0.75C7.42673 0.75 8.01185 1.16176 8.2655 1.75H8.67053C8.92433 1.59156 9.22421 1.5 9.54545 1.5C10.2267 1.5 10.8118 1.91176 11.0655 2.5H12.1669C12.1763 2.5 12.1851 2.50254 12.1927 2.50696C12.243 2.50235 12.294 2.5 12.3454 2.5C13.2592 2.5 14 3.24076 14 4.15455V9.1158L14 9.125L14 9.1342V9.20566C14 9.23592 13.9992 9.26606 13.9975 9.29606C13.898 12.7378 10.8032 15.5 6.99999 15.5C3.134 15.5 0 12.6458 0 9.125C0 7.42552 0.730222 5.88134 1.92051 4.73853C1.91754 6.39535 1.94553 8.10822 2.07453 8.07884C2.41995 8.00009 2.15007 2.86834 2.08692 1.74704Z" fill="white"/>
</svg>
