<svg width="16" height="14" viewBox="0 0 16 14" fill="none" xmlns="http://www.w3.org/2000/svg">
<path fill-rule="evenodd" clip-rule="evenodd" d="M5.73573 13.5C7.93309 13.5 9.8143 12.2787 10.5909 10.5475C10.6004 10.5264 7.47289 11.3603 7.57262 11.0655C7.61715 10.9339 9.53434 10.2335 10.9311 9.41662C11.7339 8.94708 12.1036 7.95312 12.1036 7.95312C12.1036 7.95312 10.7511 8.60981 10.0673 8.7764C8.68944 9.11214 7.47652 9.07599 7.47652 9.04101C7.47652 8.96536 9.49054 8.58269 12.2898 6.87687C13.6065 6.07452 13.9641 4.69247 13.9641 4.69247C13.9641 4.69247 12.5165 5.55474 11.6414 5.83941C9.56615 6.5145 7.67235 6.71794 7.67235 6.62659C7.67235 6.43101 9.33896 5.97271 11.106 5.11651C12.0247 4.67135 12.8204 4.08975 13.7425 3.44296C15.2512 2.38473 15.5 0.5 15.5 0.5C15.5 0.5 14.012 1.45977 13.2858 1.7785C10.2893 3.09368 7.64346 3.78356 5.73573 3.93292C2.85597 4.15839 0.500031 6.16766 0.500031 8.7764C0.500031 11.3852 2.84413 13.5 5.73573 13.5Z" fill="white"/>
</svg>
