<svg width="16" height="16" viewBox="0 0 16 16" fill="none" xmlns="http://www.w3.org/2000/svg">
<path fill-rule="evenodd" clip-rule="evenodd" d="M13.0338 12.0268C14.5486 10.8157 15.5 9.0657 15.5 7.11963C15.5 3.4637 12.1421 0.5 8 0.5C3.85786 0.5 0.5 3.4637 0.5 7.11963C0.5 8.99545 1.38399 10.689 2.80435 11.8936C2.71827 12.1908 2.67105 12.5141 2.67105 12.8521C2.67105 14.3145 3.5547 15.5 4.64475 15.5C5.35303 15.5 5.97418 14.9995 6.32237 14.2477C6.67057 14.9995 7.29172 15.5 8 15.5C8.64564 15.5 9.21887 15.0841 9.57895 14.4411C9.93904 15.0841 10.5123 15.5 11.1579 15.5C12.2479 15.5 13.1316 14.3145 13.1316 12.8521C13.1316 12.564 13.0972 12.2865 13.0338 12.0268ZM12.3421 7.25091C12.3421 9.10698 10.3539 10.6116 7.90133 10.6116C5.44874 10.6116 3.46054 9.10698 3.46054 7.25091C3.46054 5.39483 5.44874 3.89018 7.90133 3.89018C10.3539 3.89018 12.3421 5.39483 12.3421 7.25091Z" fill="white"/>
</svg>
