<svg width="14" height="16" viewBox="0 0 14 16" fill="none" xmlns="http://www.w3.org/2000/svg">
<path fill-rule="evenodd" clip-rule="evenodd" d="M12.8655 12.9582C12.8655 12.9582 10.9741 14.4752 7.21031 13.8474C4.35474 13.3711 2.83171 10.2233 2.83171 8.53128C2.83171 4.51966 5.80083 3.60674 7.80817 3.60674C9.81547 3.60674 11.125 5.56377 11.125 7.07901C11.125 8.59424 10.0533 9.91957 8.38549 9.91957C6.71774 9.91957 6.22379 8.74873 6.22379 7.67227C6.22379 6.59584 7.0947 6.2166 7.88897 6.2166C8.68324 6.2166 8.9552 6.8947 8.9552 7.4775C8.9552 8.06034 8.503 8.26905 8.12583 8.26905C7.74866 8.26905 7.71137 8.07876 7.56702 7.87878C7.42265 7.67883 7.75113 6.92192 7.21031 6.92192C6.66949 6.92192 6.56867 7.79207 6.56867 7.79207C6.56867 7.79207 6.76584 9.47174 8.38549 9.44277C10.0052 9.41376 10.7735 8.16162 10.5502 6.92192C10.3269 5.68219 9.1238 4.36486 7.01226 4.63105C4.90072 4.89724 4.0386 7.03076 4.41861 9.31076C4.79862 11.5908 7.53005 12.9118 9.67766 12.4366C11.8253 11.9613 13.9643 10.4065 13.9643 6.46451C13.9643 2.52249 10.5502 0.152987 6.47929 0.543494C2.40834 0.934 -0.118719 4.49309 0.0430351 8.76941C0.204789 13.0457 4.26251 15.3747 7.69373 15.4948C11.125 15.6148 13.2284 13.6286 13.2284 13.6286C13.2284 13.6286 13.7015 13.2067 13.516 12.8773C13.3306 12.5479 12.8655 12.9582 12.8655 12.9582Z" fill="white"/>
</svg>
