<svg width="14" height="16" viewBox="0 0 14 16" fill="none" xmlns="http://www.w3.org/2000/svg">
<path fill-rule="evenodd" clip-rule="evenodd" d="M7.72769 7.96722C7.82935 7.90522 7.9156 7.77532 7.98515 7.63095C8.90053 8.00507 9.5438 8.88913 9.5438 9.92012C9.5438 11.2897 8.40855 12.4001 7.00816 12.4001C6.4333 12.4001 5.90311 12.2129 5.47781 11.8976C5.3383 11.8316 5.22351 11.7681 5.12958 11.7162C4.98389 11.6356 4.88835 11.5828 4.82853 11.5911C4.65366 11.6152 4.70443 11.7761 4.75057 11.9222C4.78189 12.0215 4.8111 12.114 4.76589 12.1522C4.71861 12.1921 4.56544 12.0461 4.38647 11.8754C4.14284 11.6432 3.85139 11.3653 3.71396 11.4487C3.6053 11.5147 3.71079 11.6938 3.83994 11.9129L3.84952 11.9292C3.90407 12.0218 3.96729 12.1162 4.02497 12.2022C4.14225 12.3772 4.2367 12.5181 4.18945 12.542C4.13232 12.5708 3.73429 12.3022 3.39887 11.9292C3.26941 11.7852 3.14402 11.6292 3.02747 11.4842V11.4842C2.77239 11.1668 2.55987 10.9024 2.44057 10.9337C2.29706 10.9714 2.40562 11.2674 2.56514 11.5522C2.63973 11.6855 2.72747 11.8211 2.80344 11.9386V11.9386C2.9216 12.1212 3.01127 12.2598 2.97875 12.2769C2.93487 12.2998 2.5487 11.9233 2.28642 11.4487C2.13064 11.1669 1.99983 10.8554 1.89392 10.6032C1.77908 10.3297 1.69353 10.126 1.63719 10.1055C1.44147 10.0343 1.44147 10.4334 1.51997 11.0093C1.53021 11.0845 1.54546 11.1633 1.56424 11.2435C2.32549 13.7066 4.664 15.5 7.43077 15.5C10.8151 15.5 13.5585 12.8168 13.5585 9.5068C13.5585 6.35645 11.0733 3.77384 7.91572 3.53205C7.9197 3.38364 7.99716 3.08935 7.99716 3.08935C7.99716 3.08935 8.55459 1.74064 8.58407 1.45244C8.586 1.43331 8.58831 1.41252 8.5908 1.39039C8.62552 1.07899 8.69012 0.5 8.19202 0.5C7.926 0.5 7.80231 0.69789 7.66083 0.924216V0.924219C7.60652 1.0111 7.54956 1.10218 7.48095 1.18786C6.98677 1.80499 6.1558 2.57565 5.68461 2.98622C4.6887 3.85402 3.71159 4.56723 3.1417 4.98318L3.14167 4.98321C2.88248 5.17238 2.70755 5.30009 2.65341 5.35285C2.24542 5.75059 0.782566 8.38924 0.782566 8.38924C0.782566 8.38924 0.309495 9.2358 0.477645 9.40751C0.645794 9.57919 1.05129 9.53984 1.05129 9.53984C1.05129 9.53984 6.49877 8.29013 6.98648 8.19157C7.11779 8.16503 7.21048 8.14971 7.28164 8.13796C7.47486 8.10606 7.50954 8.10031 7.72769 7.96722ZM3.87612 6.36125C3.58371 6.63919 3.09875 7.30262 3.09875 7.30262C3.09875 7.30262 4.00004 7.35813 4.49642 6.88631C4.99283 6.41445 4.8791 5.61034 4.8791 5.61034C4.8791 5.61034 4.1685 6.08331 3.87612 6.36125Z" fill="white"/>
</svg>
