<svg width="16" height="16" viewBox="0 0 16 16" fill="none" xmlns="http://www.w3.org/2000/svg">
<path fill-rule="evenodd" clip-rule="evenodd" d="M3.50955 12.3939L5.91547 11.6963L7.9935 15.4958C7.99622 15.5007 8.00328 15.5007 8.00598 15.4958L10.084 11.6963L12.49 12.3939C12.4953 12.3954 12.5004 12.3904 12.4987 12.385L11.801 10.0267L15.4958 8.00598C15.5007 8.00328 15.5007 7.99622 15.4958 7.99353L11.7706 5.9561L12.4987 3.49487C12.5004 3.48948 12.4953 3.48447 12.49 3.48603L10.0276 4.20002L8.00598 0.503697C8.00328 0.498768 7.99622 0.498768 7.99353 0.503697L5.97192 4.20002L3.50955 3.48603C3.50416 3.48447 3.49915 3.48948 3.50076 3.49487L4.22894 5.9561L0.503697 7.99353C0.498768 7.99622 0.498768 8.00328 0.503697 8.00598L4.19847 10.0267L3.50076 12.385C3.49915 12.3904 3.50416 12.3954 3.50955 12.3939ZM5.37652 8.02566L7.08099 8.95786L8.01318 10.6623C8.01588 10.6672 8.02297 10.6672 8.02566 10.6623L8.95786 8.95786L10.6623 8.02566C10.6672 8.02297 10.6672 8.01588 10.6623 8.01318L8.95786 7.08099L8.02566 5.37655C8.02297 5.3716 8.01588 5.3716 8.01318 5.37655L7.08099 7.08099L5.37652 8.01318C5.3716 8.01588 5.3716 8.02297 5.37652 8.02566Z" fill="white"/>
</svg>
