<svg width="16" height="13" viewBox="0 0 16 13" fill="none" xmlns="http://www.w3.org/2000/svg">
<path fill-rule="evenodd" clip-rule="evenodd" d="M12.1056 6.08858C12.1048 6.08741 12.1044 6.08595 12.1046 6.08451L13.0616 0.504447C13.062 0.501878 13.0643 0.5 13.0669 0.5H13.3697C13.3721 0.5 13.3741 0.501515 13.3748 0.503741L15.5308 7.33001C15.5315 7.33212 15.5307 7.33446 15.529 7.33584L13.9394 8.57694C13.937 8.57879 13.9336 8.57832 13.9318 8.57589L12.1056 6.08858ZM0.5 9.78775C0.5 9.79007 0.501488 9.79212 0.503688 9.79285L3.78052 10.8643C3.7821 10.8648 3.78386 10.8645 3.78523 10.8636L11.1097 5.80695C11.1109 5.8061 11.1118 5.80479 11.112 5.80332L11.8974 0.533059C11.8979 0.529824 11.8954 0.526918 11.8921 0.526918H5.40447C5.40286 0.526918 5.40137 0.527627 5.40034 0.528855L0.501231 6.43889C0.500435 6.43985 0.5 6.44105 0.5 6.44231V9.78775ZM5.14599 11.1373L8.72586 12.3099C8.72747 12.3104 8.72926 12.3102 8.73063 12.3092L12.9927 9.25197C12.9951 9.2503 12.9957 9.24705 12.9941 9.24465L11.3963 6.86706C11.3947 6.86457 11.3913 6.86393 11.3889 6.86562L5.14599 11.1373Z" fill="white"/>
</svg>
