<svg width="14" height="16" viewBox="0 0 14 16" fill="none" xmlns="http://www.w3.org/2000/svg">
<path fill-rule="evenodd" clip-rule="evenodd" d="M9.52233 0.514686C9.53325 0.499108 9.5547 0.495323 9.57028 0.50623L10.6353 1.252C10.6509 1.26291 10.6547 1.28437 10.6438 1.29995L9.16142 3.41701C9.88209 3.64725 10.3731 3.8956 10.3731 3.8956C10.3731 3.8956 9.17296 5.95991 7.13744 5.95991C5.10193 5.95991 3.65551 4.03593 3.65551 4.03593C3.65551 4.03593 4.16838 3.70862 4.92863 3.4279L3.30266 1.49016C3.29044 1.47559 3.29235 1.45388 3.30691 1.44165L4.30291 0.605898C4.3175 0.593674 4.33921 0.595574 4.35143 0.610142L6.41018 3.06366C6.58646 3.04372 6.76605 3.03258 6.94728 3.03258C7.20776 3.03258 7.46791 3.05238 7.72189 3.08599L9.52233 0.514686ZM9.92504 6.05768C10.4682 5.66973 11.2902 4.65717 11.2902 4.65717C11.2902 4.65717 13.3897 6.32094 13.3897 9.84875C13.3897 13.3765 9.75995 15.4998 9.75995 15.4998C9.75995 15.4998 8.02572 13.7484 7.59998 11.5282C7.17427 9.30808 8.22975 6.84286 8.22975 6.84286C8.22975 6.84286 9.38182 6.44562 9.92504 6.05768ZM4.07495 6.05768C3.53176 5.66973 2.70981 4.65717 2.70981 4.65717C2.70981 4.65717 0.610275 6.32094 0.610275 9.84875C0.610275 13.3765 4.24004 15.4998 4.24004 15.4998C4.24004 15.4998 5.97427 13.7484 6.40001 11.5282C6.82572 9.30808 5.77025 6.84286 5.77025 6.84286C5.77025 6.84286 4.61818 6.44562 4.07495 6.05768Z" fill="white"/>
</svg>
