<svg width="12" height="16" viewBox="0 0 12 16" fill="none" xmlns="http://www.w3.org/2000/svg">
<path fill-rule="evenodd" clip-rule="evenodd" d="M8.82507 12.0838C9.0104 11.4061 8.65066 10.013 8.65066 10.013C8.65066 10.013 8.38975 11.1479 7.98205 11.5674C7.63424 11.9252 7.20811 12.1734 6.59698 12.2386C7.09664 11.9959 7.44026 11.4898 7.44026 10.9049C7.44026 10.0839 6.76315 9.41823 5.9279 9.41823C5.09265 9.41823 4.41551 10.0839 4.41551 10.9049C4.41551 11.1292 4.46604 11.3418 4.55648 11.5325C4.03406 11.1163 3.95191 10.449 3.95191 10.449C3.95191 10.449 3.36855 12.871 4.97596 14.0103C6.58333 15.1496 9.73213 14.1703 9.73213 14.1703C9.73213 14.1703 5.22601 17.3409 1.88692 13.8901C-0.989421 10.9175 1.13619 7.00399 1.13619 7.00399C1.13619 7.00399 1.04439 7.36704 1.04439 7.78848C1.04439 8.20991 1.27289 8.53057 1.27289 8.53057C1.27289 8.53057 1.95448 7.09388 2.48493 6.50961C2.98696 5.95666 3.61629 5.50818 4.15986 5.12082C4.57828 4.82264 4.9459 4.56066 5.16545 4.31513C6.37474 2.96295 5.63326 0.5 5.63326 0.5C5.63326 0.5 6.99644 1.70176 7.37701 3.25384C7.52209 3.84547 7.42875 4.51862 7.34531 5.12059C7.20984 6.09781 7.10036 6.88745 8.07902 6.83621C9.66053 6.75339 8.28624 4.31513 8.28624 4.31513C8.28624 4.31513 11.8737 6.20067 11.6057 9.49839C11.3377 12.7961 7.68442 13.5458 7.68442 13.5458C7.68442 13.5458 8.63971 12.7615 8.82507 12.0838Z" fill="white"/>
</svg>
