<svg width="16" height="16" viewBox="0 0 16 16" fill="none" xmlns="http://www.w3.org/2000/svg">
<path fill-rule="evenodd" clip-rule="evenodd" d="M11.3091 15.4481C9.95612 15.5173 8.40711 15.5173 7.8807 15.4481C3.77451 14.9079 0.5 11.9057 0.5 7.84766C0.5 3.78966 3.85786 0.5 8 0.5C12.1421 0.5 15.5 3.78966 15.5 7.84766C15.5 9.73499 14.7736 11.4561 13.5799 12.7574C13.2557 13.1108 13.7005 13.3586 14.1524 13.6105C14.5956 13.8575 15.0457 14.1083 14.7841 14.4662C14.4959 14.8605 12.9334 15.3649 11.3091 15.4481ZM6.94531 6.9292C6.94531 7.56324 6.42063 8.07726 5.77344 8.07726C5.12624 8.07726 4.60156 7.56324 4.60156 6.9292C4.60156 6.50395 4.83755 6.13273 5.1882 5.93431C5.20839 6.48717 6.3875 6.9292 6.94531 6.9292ZM10.5774 5.93431C10.5572 6.48717 9.37813 6.92917 8.82031 6.92917C8.82031 7.56321 9.34499 8.07726 9.99219 8.07726C10.6394 8.07726 11.1641 7.56324 11.1641 6.9292C11.1641 6.50395 10.9281 6.13273 10.5774 5.93431Z" fill="white"/>
</svg>
