<svg width="14" height="16" viewBox="0 0 14 16" fill="none" xmlns="http://www.w3.org/2000/svg">
<path fill-rule="evenodd" clip-rule="evenodd" d="M2.46285 13.3796C2.41136 13.3312 2.36044 13.2818 2.31012 13.2315C-0.346658 10.5747 -0.346658 6.26722 2.31012 3.61046C4.96688 0.953675 13.4324 0.77594 13.4324 0.77594C13.4324 0.77594 14.5879 10.5747 11.9312 13.2315C9.57158 15.591 5.91 15.855 3.25913 14.0234L5.39511 11.4022L8.80966 10.665L6.02238 10.3863L7.79373 8.58275L9.81006 8.14105L8.21567 7.66887L9.81006 4.79262L7.54219 7.33641L6.66642 6.10058L6.97471 8.14105L5.39511 9.92177L4.66289 7.66884V10.665L2.46285 13.3796Z" fill="white"/>
</svg>
