<svg width="16" height="12" viewBox="0 0 16 12" fill="none" xmlns="http://www.w3.org/2000/svg">
<path fill-rule="evenodd" clip-rule="evenodd" d="M3.80369 11.3952C3.79962 11.3952 3.79678 11.3911 3.79813 11.3873L7.62767 0.566441C7.62852 0.564089 7.63074 0.562515 7.63323 0.562515H11.7214C11.7239 0.562515 11.7261 0.5641 11.7269 0.566467L15.4997 11.3873C15.501 11.3912 15.4982 11.3952 15.4941 11.3952H3.91877H3.80369ZM0.505959 11.4375C0.501846 11.4375 0.498998 11.4334 0.500441 11.4295L3.35219 3.81611C3.35305 3.81379 3.35525 3.81227 3.35771 3.81227H5.83555C5.83965 3.81227 5.84249 3.81634 5.84109 3.82018L3.08353 11.4336C3.08268 11.4359 3.08047 11.4375 3.07799 11.4375H0.505959Z" fill="white"/>
</svg>
