<svg width="16" height="14" viewBox="0 0 16 14" fill="none" xmlns="http://www.w3.org/2000/svg">
<path fill-rule="evenodd" clip-rule="evenodd" d="M0.501497 6.96075C0.499502 6.95735 0.499501 6.95313 0.501495 6.94971L4.27329 0.505399C4.27525 0.502057 4.27886 0.5 4.28273 0.5H11.7586C11.7625 0.5 11.7661 0.502074 11.7681 0.505446L15.4985 6.94977C15.5005 6.95313 15.5005 6.95732 15.4985 6.96069L11.7681 13.3978C11.7661 13.4011 11.7625 13.4032 11.7586 13.4032H4.28273C4.27886 13.4032 4.27525 13.4012 4.27329 13.3978L0.501497 6.96075ZM11.4751 6.95161C11.4751 8.8702 9.91977 10.4255 8.00117 10.4255C6.08258 10.4255 4.52724 8.8702 4.52724 6.95161C4.52724 5.03299 6.08258 3.47768 8.00117 3.47768C9.91977 3.47768 11.4751 5.03299 11.4751 6.95161Z" fill="white"/>
</svg>
