<svg width="10" height="16" viewBox="0 0 10 16" fill="none" xmlns="http://www.w3.org/2000/svg">
<path fill-rule="evenodd" clip-rule="evenodd" d="M9.86579 10.6518C9.86579 13.329 7.6873 15.4993 4.99999 15.4993C2.31267 15.4993 0.134186 13.329 0.134186 10.6518C0.134186 8.04802 4.73678 0.896911 4.98921 0.506674C4.99498 0.497775 5.00503 0.497775 5.01077 0.506674C5.26319 0.896911 9.86579 8.04802 9.86579 10.6518ZM4.18887 13.9452C1.71973 13.405 2.14225 10.6698 2.14225 10.6698C2.14225 10.6698 2.81649 12.3209 4.45269 12.8558C6.08886 13.3906 8.06617 12.6062 8.06617 12.6062C8.06617 12.6062 6.65801 14.4855 4.18887 13.9452Z" fill="white"/>
</svg>
